<?xml version="1.0" encoding="UTF-8"?>
<svg id="Calque_2" data-name="Calque 2" xmlns="http://www.w3.org/2000/svg" viewBox="0 0 466.65 158.99">
  <defs>
    <style>
      .cls-1 {
        fill: #000;
        stroke-width: 0px;
      }
    </style>
  </defs>
  <g id="Calque_1-2" data-name="Calque 1">
    <g>
      <g>
        <g>
          <path class="cls-1" d="M67.91,82.9l38.2,59.1h-28.6l-28.3-43.1-17.8,15.7-5.5,27.4H.61L22.61,32.1h25.3l-10,50.4,57-50.4h30.8l-57.8,50.8Z"/>
          <path class="cls-1" d="M107.03,142.5h-29.79l-28.13-42.84-17.24,15.21-5.55,27.64H0L22.2,31.6h26.32l-9.83,49.54,56.03-49.54h32.32l-58.47,51.39,38.46,59.51ZM77.78,141.5h27.41l-37.94-58.69.32-.29,56.8-49.92h-29.28l-57.97,51.26,10.17-51.26h-24.28L1.22,141.5h24.28l5.45-27.16,18.36-16.19,28.47,43.36Z"/>
        </g>
        <g>
          <path class="cls-1" d="M343.71,93.6c2.5,3.8,3.8,8.3,3.8,13.6,0,11.4-4.5,20.1-13.5,25.9-9,5.9-21,8.8-35.9,8.8h-57.6l22-109.9h53.1c11.8,0,20.9,2.1,27.4,6.5,6.4,4.4,9.6,10.6,9.6,18.6,0,6.7-1.8,12.4-5.3,17.2s-8.3,8.4-14.4,10.9c4.6,1.9,8.2,4.7,10.8,8.4ZM316.21,118.7c4-2.8,6-6.7,6-11.8,0-7.5-5.5-11.3-16.5-11.3h-30.8l-5.4,27.2h30c7.2,0,12.7-1.4,16.7-4.1ZM283.71,51.2l-5.2,25.9h25.9c6.7,0,11.9-1.3,15.6-4,3.7-2.7,5.6-6.5,5.6-11.6,0-6.9-5.4-10.3-16.2-10.3h-25.7Z"/>
          <path class="cls-1" d="M298.11,142.4h-58.21l22.2-110.9h53.51c12.08,0,21.13,2.15,27.68,6.59,6.52,4.48,9.82,10.88,9.82,19.01,0,6.7-1.82,12.58-5.4,17.5-3.3,4.52-7.85,8.09-13.54,10.61,4.17,1.91,7.51,4.64,9.95,8.11h0c2.58,3.93,3.88,8.6,3.88,13.89,0,11.59-4.62,20.45-13.73,26.32-8.99,5.89-21.16,8.88-36.17,8.88ZM241.12,141.4h56.99c14.81,0,26.8-2.93,35.63-8.72,8.81-5.68,13.27-14.25,13.27-25.48,0-5.09-1.25-9.57-3.71-13.32-2.53-3.6-6.09-6.37-10.58-8.22l-1.12-.46,1.12-.46c6.1-2.5,10.74-6.01,14.19-10.73,3.45-4.74,5.2-10.42,5.2-16.91,0-7.79-3.16-13.91-9.38-18.19-6.37-4.31-15.24-6.41-27.12-6.41h-52.69l-21.8,108.9ZM299.51,123.3h-30.61l5.6-28.2h31.21c11.28,0,17,3.97,17,11.8,0,5.22-2.09,9.32-6.21,12.21h0c-4.17,2.82-9.73,4.19-16.98,4.19ZM270.12,122.3h29.39c6.95,0,12.47-1.35,16.42-4.01,3.89-2.72,5.78-6.45,5.78-11.39,0-7.17-5.38-10.8-16-10.8h-30.39l-5.2,26.2ZM304.41,77.6h-26.51l5.4-26.9h26.11c11.08,0,16.7,3.63,16.7,10.8,0,5.23-1.9,9.15-5.81,12-3.78,2.76-8.98,4.1-15.9,4.1ZM279.12,76.6h25.29c6.7,0,11.71-1.28,15.31-3.9,3.63-2.65,5.4-6.31,5.4-11.2,0-6.59-5.14-9.8-15.7-9.8h-25.29l-5,24.9Z"/>
        </g>
        <g>
          <path class="cls-1" d="M406.51,54.9c-4.5,2.8-6.8,6.6-6.8,11.3,0,3.2,1.2,5.7,3.8,7.4,2.5,1.8,6.3,2.6,11.3,2.6h29.3l-4.1,20.1h-32.9c-6.5,0-11.6,1.2-15.6,3.7s-5.8,5.9-5.8,10.3c0,8.6,8.3,12.9,24.8,12.9,7,0,13.7-.8,20.1-2.6,6.4-1.8,11.9-4.1,16.4-7l6.6,19c-5.7,3.4-12.6,6.2-21,8.2s-16.9,3-25.8,3c-14.6,0-26.2-2.7-34.6-8s-12.6-12.6-12.6-22.1c0-7,2.1-13.1,6.4-18.3s10-8.9,17.2-11.3c-2.9-2-5.2-4.4-6.7-7.4-1.6-3-2.4-6.4-2.4-10.1,0-7.4,2.2-13.8,6.6-19.3,4.4-5.5,10.6-9.8,18.8-12.8s17.5-4.4,28.2-4.4c7.7,0,14.9.7,21.5,2.1,6.6,1.4,12.2,3.4,16.8,6.1l-8.4,19.2c-9-4.5-19.6-6.7-31.7-6.7-8.4-.1-14.8,1.3-19.4,4.1ZM437.21.5h27l-30.8,22.6h-19.8L437.21.5Z"/>
          <path class="cls-1" d="M406.81,144.3c-14.64,0-26.37-2.72-34.87-8.08-8.52-5.37-12.83-12.95-12.83-22.52,0-7.13,2.19-13.39,6.51-18.62,4.15-5.02,9.56-8.67,16.51-11.14-2.74-2.04-4.73-4.34-6.07-7.02-1.63-3.05-2.45-6.52-2.45-10.32,0-7.45,2.26-14.05,6.71-19.61,4.5-5.63,10.9-9.99,19.02-12.96,8.15-2.98,17.43-4.43,28.37-4.43,7.73,0,15,.71,21.6,2.11,6.81,1.44,12.35,3.46,16.95,6.16l.38.23-8.79,20.09-.47-.24c-8.82-4.41-19.41-6.65-31.48-6.65-8.15-.1-14.59,1.26-19.14,4.03-4.36,2.71-6.56,6.37-6.56,10.88,0,3.13,1.17,5.41,3.57,6.98,2.36,1.7,5.96,2.52,11.03,2.52h29.91l-4.3,21.1h-33.31c-6.42,0-11.43,1.19-15.33,3.62-3.75,2.34-5.57,5.57-5.57,9.88,0,8.23,8.18,12.4,24.3,12.4,7.26,0,13.79-.84,19.96-2.58,6.47-1.82,11.94-4.15,16.26-6.94l.53-.34,6.94,19.99-.35.21c-5.97,3.56-13.08,6.34-21.14,8.26-8.52,2.03-16.99,3.01-25.92,3.01ZM427.71,30.6c-10.82,0-19.99,1.43-28.03,4.37-7.94,2.91-14.19,7.16-18.58,12.64s-6.49,11.67-6.49,18.99c0,3.63.79,6.95,2.34,9.86,1.39,2.79,3.53,5.15,6.54,7.22l.83.57-.95.32c-7.21,2.4-12.76,6.05-16.97,11.14-4.17,5.04-6.29,11.09-6.29,17.98,0,9.34,4.04,16.43,12.37,21.68,8.33,5.26,19.88,7.92,34.33,7.92,8.84,0,17.24-.98,25.68-2.99,7.8-1.86,14.7-4.53,20.51-7.94l-6.26-18.02c-4.32,2.69-9.69,4.95-16,6.72-6.26,1.76-12.88,2.62-20.24,2.62-16.79,0-25.3-4.51-25.3-13.4,0-4.68,1.97-8.19,6.04-10.72,4.07-2.54,9.26-3.78,15.87-3.78h32.49l3.9-19.1h-28.69c-5.28,0-9.07-.88-11.59-2.7-2.65-1.73-4.01-4.36-4.01-7.8,0-4.88,2.37-8.82,7.04-11.72h0c4.71-2.87,11.32-4.28,19.67-4.18,12,0,22.58,2.19,31.45,6.52l8.01-18.31c-4.43-2.53-9.76-4.44-16.27-5.82-6.54-1.39-13.73-2.09-21.4-2.09ZM433.57,23.6h-21.21L437.01,0h28.73l-32.16,23.6ZM414.85,22.6h18.39l29.44-21.6h-25.27l-22.56,21.6Z"/>
        </g>
      </g>
      <path class="cls-1" d="M227.81,158.99l-50.24-32.35-65.91.8L208.31,10.03l19.5,148.96ZM182.65,108.96l22.76,14.65-9.3-71.04-46.75,56.79,33.29-.4Z"/>
    </g>
  </g>
</svg>